<svg width="148" height="70" viewBox="0 0 148 70" fill="none" xmlns="http://www.w3.org/2000/svg">
<path d="M0.723313 23.4H7.34731L15.8433 49.944H16.1313L24.5793 23.4H31.2513L20.2593 57.048H11.6673L0.723313 23.4ZM43.9781 57.384C41.3221 57.384 39.0821 56.776 37.2581 55.56C35.4341 54.312 34.0741 52.696 33.1781 50.712C32.3141 48.696 31.8821 46.536 31.8821 44.232C31.8821 41.928 32.3141 39.784 33.1781 37.8C34.0741 35.784 35.4341 34.152 37.2581 32.904C39.0821 31.656 41.3381 31.032 44.0261 31.032C47.5781 31.032 50.3941 32.168 52.4741 34.44C54.5861 36.712 55.6421 39.992 55.6421 44.28V46.104H38.2661V46.488C38.2661 48.024 38.7941 49.352 39.8501 50.472C40.9061 51.56 42.2341 52.104 43.8341 52.104C45.0821 52.104 46.1381 51.816 47.0021 51.24C47.8661 50.664 48.4901 49.88 48.8741 48.888H55.4021C54.7301 51.384 53.4181 53.432 51.4661 55.032C49.5141 56.6 47.0181 57.384 43.9781 57.384ZM49.2581 41.784C49.1941 39.768 48.6821 38.28 47.7221 37.32C46.7621 36.36 45.4981 35.88 43.9301 35.88C42.2661 35.88 40.9541 36.408 39.9941 37.464C39.0341 38.52 38.5221 39.96 38.4581 41.784H49.2581ZM60.4983 31.656H67.0743V35.688H67.4103C67.8263 34.568 68.5943 33.624 69.7143 32.856C70.8343 32.056 72.2743 31.656 74.0343 31.656C74.7063 31.656 75.2823 31.72 75.7623 31.848L75.4743 37.944C74.6743 37.72 73.8263 37.608 72.9303 37.608C70.9463 37.608 69.4743 38.136 68.5143 39.192C67.5543 40.216 67.0743 41.928 67.0743 44.328V57H60.4983V31.656ZM88.6049 57.384C86.4609 57.384 84.6049 56.984 83.0369 56.184C81.5009 55.384 80.3329 54.344 79.5329 53.064C78.7329 51.752 78.3329 50.376 78.3329 48.936V48.648H84.8129V48.936C84.8129 49.8 85.1489 50.568 85.8209 51.24C86.4929 51.912 87.4689 52.248 88.7489 52.248C89.8049 52.248 90.6529 52.008 91.2929 51.528C91.9649 51.016 92.3009 50.328 92.3009 49.464C92.3009 48.696 92.0129 48.088 91.4369 47.64C90.8609 47.192 90.1409 46.904 89.2769 46.776L86.3969 46.2C84.5089 45.848 82.7969 45.096 81.2609 43.944C79.7249 42.792 78.9569 41.048 78.9569 38.712C78.9569 36.312 79.8369 34.44 81.5969 33.096C83.3569 31.72 85.6129 31.032 88.3649 31.032C90.3809 31.032 92.1249 31.4 93.5969 32.136C95.0689 32.872 96.1889 33.848 96.9569 35.064C97.7249 36.248 98.1089 37.528 98.1089 38.904V39.096H91.6289V38.952C91.6289 38.184 91.3409 37.48 90.7649 36.84C90.1889 36.168 89.3089 35.832 88.1249 35.832C87.1329 35.832 86.3329 36.088 85.7249 36.6C85.1169 37.112 84.8129 37.784 84.8129 38.616C84.8129 39.384 85.1169 39.992 85.7249 40.44C86.3649 40.888 87.1489 41.192 88.0769 41.352L91.2449 41.976C93.2929 42.424 95.0209 43.24 96.4289 44.424C97.8369 45.576 98.5409 47.224 98.5409 49.368C98.5409 50.968 98.1089 52.376 97.2449 53.592C96.3809 54.808 95.1809 55.752 93.6449 56.424C92.1409 57.064 90.4609 57.384 88.6049 57.384ZM111.892 57.384C108.756 57.384 106.308 56.184 104.548 53.784C102.788 51.384 101.908 48.216 101.908 44.28C101.908 40.28 102.788 37.08 104.548 34.68C106.34 32.248 108.836 31.032 112.036 31.032C114.18 31.032 115.86 31.528 117.076 32.52C118.292 33.48 119.156 34.504 119.668 35.592H120.052V31.656H126.724V57H120.052V52.632H119.668C119.092 53.816 118.196 54.904 116.98 55.896C115.764 56.888 114.068 57.384 111.892 57.384ZM114.34 52.008C116.228 52.008 117.652 51.24 118.612 49.704C119.572 48.168 120.052 46.328 120.052 44.184C120.052 42.04 119.572 40.216 118.612 38.712C117.684 37.208 116.26 36.456 114.34 36.456C112.42 36.456 110.996 37.208 110.068 38.712C109.14 40.216 108.676 42.04 108.676 44.184C108.676 46.36 109.14 48.216 110.068 49.752C110.996 51.256 112.42 52.008 114.34 52.008Z" fill="white"/>
<path d="M139.552 51.4C138.176 51.4 137.04 51.096 136.144 50.488C135.248 49.88 134.576 49.112 134.128 48.184C133.712 47.256 133.504 46.328 133.504 45.4C133.504 44.472 133.712 43.544 134.128 42.616C134.576 41.688 135.248 40.92 136.144 40.312C137.04 39.704 138.176 39.4 139.552 39.4C140.928 39.4 142.064 39.72 142.96 40.36C143.856 40.968 144.496 41.736 144.88 42.664C145.296 43.56 145.504 44.472 145.504 45.4C145.504 46.296 145.296 47.208 144.88 48.136C144.496 49.064 143.856 49.848 142.96 50.488C142.064 51.096 140.928 51.4 139.552 51.4ZM139.552 49.72C141.024 49.72 142.112 49.272 142.816 48.376C143.52 47.448 143.872 46.44 143.872 45.352C143.872 44.296 143.52 43.32 142.816 42.424C142.112 41.528 141.024 41.08 139.552 41.08C138.112 41.08 137.024 41.528 136.288 42.424C135.552 43.288 135.184 44.264 135.184 45.352C135.184 46.472 135.552 47.48 136.288 48.376C137.024 49.272 138.112 49.72 139.552 49.72ZM137.44 42.472H140.128C140.704 42.472 141.136 42.648 141.424 43C141.712 43.352 141.856 43.752 141.856 44.2C141.856 45.128 141.536 45.688 140.896 45.88L142.048 48.136V48.232H140.56L139.456 46.024H138.784V48.232H137.44V42.472ZM139.744 45.064C139.936 45.064 140.112 45.016 140.272 44.92C140.432 44.792 140.512 44.6 140.512 44.344C140.512 43.864 140.256 43.624 139.744 43.624H138.784V45.064H139.744Z" fill="white"/>
</svg>
