<svg width="107" height="20" viewBox="0 0 107 20" fill="none" xmlns="http://www.w3.org/2000/svg">
<path d="M4.04 5.464V9.016H10.328V11.92H4.04V19H0.272V2.2H11.168V5.464H4.04ZM12.9144 6.304H16.6344V19H12.9144V6.304ZM14.7624 4.192C14.1864 4.192 13.7064 4 13.3224 3.616C12.9384 3.216 12.7464 2.736 12.7464 2.176C12.7464 1.6 12.9384 1.12 13.3224 0.735999C13.7064 0.335999 14.1864 0.136 14.7624 0.136C15.3384 0.136 15.8184 0.335999 16.2024 0.735999C16.6024 1.12 16.8024 1.6 16.8024 2.176C16.8024 2.736 16.6024 3.216 16.2024 3.616C15.8184 4 15.3384 4.192 14.7624 4.192ZM24.044 19.072C22.78 19.072 21.844 18.88 21.236 18.496C20.644 18.112 20.276 17.648 20.132 17.104C19.988 16.56 19.916 15.864 19.916 15.016L19.94 0.999999H23.66V14.248C23.66 14.808 23.684 15.232 23.732 15.52C23.796 15.792 23.956 16.008 24.212 16.168C24.484 16.328 24.908 16.408 25.484 16.408C25.788 16.408 25.996 16.392 26.108 16.36V18.952C25.388 19.032 24.7 19.072 24.044 19.072ZM33.8981 19.216C32.5541 19.216 31.4181 18.912 30.4901 18.304C29.5781 17.68 28.8981 16.872 28.4501 15.88C28.0181 14.872 27.8021 13.792 27.8021 12.64C27.8021 11.488 28.0181 10.416 28.4501 9.424C28.8981 8.416 29.5781 7.6 30.4901 6.976C31.4181 6.352 32.5701 6.04 33.9461 6.04C35.7381 6.04 37.1621 6.608 38.2181 7.744C39.2741 8.864 39.8021 10.496 39.8021 12.64V13.672H31.4021V13.864C31.4021 14.52 31.6261 15.088 32.0741 15.568C32.5381 16.032 33.1221 16.264 33.8261 16.264C34.3701 16.264 34.8341 16.144 35.2181 15.904C35.6021 15.648 35.8741 15.312 36.0341 14.896H39.7061C39.3861 16.16 38.7221 17.2 37.7141 18.016C36.7221 18.816 35.4501 19.216 33.8981 19.216ZM36.2261 11.272C36.2101 10.408 35.9861 9.768 35.5541 9.352C35.1381 8.936 34.5781 8.728 33.8741 8.728C33.1541 8.728 32.5781 8.952 32.1461 9.4C31.7301 9.848 31.5141 10.472 31.4981 11.272H36.2261ZM48.1593 19.216C46.8153 19.216 45.6473 18.952 44.6553 18.424C43.6793 17.896 42.9353 17.208 42.4233 16.36C41.9273 15.496 41.6793 14.6 41.6793 13.672V13.48H45.7833V13.648C45.7833 14.224 45.9913 14.752 46.4073 15.232C46.8233 15.712 47.4313 15.952 48.2313 15.952C48.9193 15.952 49.4713 15.776 49.8873 15.424C50.3033 15.072 50.5113 14.608 50.5113 14.032C50.5113 13.52 50.3273 13.112 49.9593 12.808C49.5913 12.488 49.1433 12.272 48.6153 12.16L46.6953 11.776C45.5753 11.52 44.5273 11.04 43.5513 10.336C42.5753 9.632 42.0873 8.48 42.0873 6.88C42.0873 5.84 42.3353 4.944 42.8313 4.192C43.3433 3.44 44.0473 2.864 44.9433 2.464C45.8393 2.064 46.8553 1.864 47.9913 1.864C49.2873 1.864 50.4073 2.112 51.3513 2.608C52.2953 3.104 53.0073 3.752 53.4873 4.552C53.9673 5.336 54.2073 6.16 54.2073 7.024V7.144H50.1033V7.072C50.1033 6.56 49.9193 6.088 49.5513 5.656C49.1993 5.208 48.6313 4.984 47.8473 4.984C47.2393 4.984 46.7513 5.152 46.3833 5.488C46.0313 5.824 45.8553 6.264 45.8553 6.808C45.8553 7.336 46.0553 7.752 46.4553 8.056C46.8553 8.36 47.3353 8.568 47.8953 8.68L49.8393 9.112C51.1033 9.384 52.1833 9.896 53.0793 10.648C53.9753 11.4 54.4233 12.496 54.4233 13.936C54.4233 14.992 54.1513 15.92 53.6073 16.72C53.0633 17.52 52.3113 18.136 51.3513 18.568C50.4073 19 49.3433 19.216 48.1593 19.216ZM56.6621 1.192H60.4061V8.152H60.5981C60.8701 7.56 61.3101 7.064 61.9181 6.664C62.5421 6.248 63.2941 6.04 64.1741 6.04C65.8381 6.04 66.9901 6.568 67.6301 7.624C68.2701 8.664 68.5901 9.832 68.5901 11.128V19H64.8461V11.776C64.8461 10.944 64.6621 10.288 64.2941 9.808C63.9261 9.328 63.3741 9.088 62.6381 9.088C61.9021 9.088 61.3421 9.336 60.9581 9.832C60.5901 10.328 60.4061 10.976 60.4061 11.776V19H56.6621V1.192ZM75.4693 19.216C73.9013 19.216 72.6853 18.624 71.8213 17.44C70.9733 16.24 70.5493 14.64 70.5493 12.64C70.5493 10.624 70.9893 9.024 71.8693 7.84C72.7493 6.64 73.9653 6.04 75.5173 6.04C76.5893 6.04 77.4133 6.28 77.9893 6.76C78.5653 7.224 78.9653 7.696 79.1893 8.176H79.3813V6.304H83.1493V19H79.3813V16.96H79.1893C78.9493 17.472 78.5333 17.976 77.9413 18.472C77.3653 18.968 76.5413 19.216 75.4693 19.216ZM76.8853 16.216C77.7333 16.216 78.3653 15.864 78.7813 15.16C79.1973 14.44 79.4053 13.592 79.4053 12.616C79.4053 11.656 79.1973 10.824 78.7813 10.12C78.3653 9.4 77.7333 9.04 76.8853 9.04C76.0053 9.04 75.3573 9.392 74.9413 10.096C74.5413 10.784 74.3413 11.616 74.3413 12.592C74.3413 13.584 74.5413 14.44 74.9413 15.16C75.3573 15.864 76.0053 16.216 76.8853 16.216ZM85.9383 6.304H89.6583V8.32H89.8503C90.0423 7.76 90.4183 7.288 90.9783 6.904C91.5543 6.504 92.2983 6.304 93.2103 6.304C93.4823 6.304 93.7383 6.328 93.9783 6.376L93.8103 9.808C93.4423 9.68 93.0183 9.616 92.5383 9.616C91.5303 9.616 90.7943 9.872 90.3303 10.384C89.8823 10.896 89.6583 11.744 89.6583 12.928V19H85.9383V6.304ZM101.093 19.216C99.7494 19.216 98.6134 18.912 97.6854 18.304C96.7734 17.68 96.0934 16.872 95.6454 15.88C95.2134 14.872 94.9974 13.792 94.9974 12.64C94.9974 11.488 95.2134 10.416 95.6454 9.424C96.0934 8.416 96.7734 7.6 97.6854 6.976C98.6134 6.352 99.7654 6.04 101.141 6.04C102.933 6.04 104.357 6.608 105.413 7.744C106.469 8.864 106.997 10.496 106.997 12.64V13.672H98.5974V13.864C98.5974 14.52 98.8214 15.088 99.2694 15.568C99.7334 16.032 100.317 16.264 101.021 16.264C101.565 16.264 102.029 16.144 102.413 15.904C102.797 15.648 103.069 15.312 103.229 14.896H106.901C106.581 16.16 105.917 17.2 104.909 18.016C103.917 18.816 102.645 19.216 101.093 19.216ZM103.421 11.272C103.405 10.408 103.181 9.768 102.749 9.352C102.333 8.936 101.773 8.728 101.069 8.728C100.349 8.728 99.7734 8.952 99.3414 9.4C98.9254 9.848 98.7094 10.472 98.6934 11.272H103.421Z" fill="black"/>
</svg>
